<?xml version="1.0" standalone="no"?>
<svg
  xmlns="http://www.w3.org/2000/svg"
>
  <g transform="translate(300,300)">
    <path d="M108.8,-175C137.6,-150.8,155.2,-114.9,180.8,-77.2C206.3,-39.5,239.7,-0.1,238.5,36.9C237.3,74,201.4,108.7,161.2,120.4C121,132.1,76.6,120.7,39.8,128.2C3,135.6,-26.1,161.8,-54.8,163.8C-83.4,165.8,-111.6,143.5,-146.3,118.4C-181,93.4,-222.1,65.6,-223.7,34.1C-225.3,2.5,-187.2,-32.8,-156.7,-59.9C-126.1,-86.9,-103.1,-105.7,-78.2,-131.7C-53.3,-157.7,-26.7,-190.8,6.7,-201.2C40,-211.6,80,-199.2,108.8,-175Z" fill="#667eea" />
  </g>
</svg>
  